# File created by Blade
# Date/Time:  Wed Apr 08 14:10:43 2015
#---------------------------------------------------------
:version 1.10
:name HOM
:units
  mass 1.0
  length 1.000000
  angle deg
:documentation
     Acclaim Skeleton File
:root
   axis xyz
   order TX TY TZ RX RY RZ
   position 0.000000 0.000000 0.000000
   orientation 0 0 0
:bonedata
   begin
      id 1
      name Spine_dum
      direction 0.000000 1.000000 0.000000
      length 4.885285
      axis 0.0 0.0 0.0 xyz
   end
   begin
      id 2
      name LeftUpLeg_dum
      direction 1.000000 0.000000 0.000000
      length 2.672193
      axis 0.0 0.0 0.0 xyz
   end
   begin
      id 3
      name RightUpLeg_dum
      direction -1.000000 0.000000 0.000000
      length 2.672193
      axis 0.0 0.0 0.0 xyz
   end
   begin
      id 4
      name Spine
      direction 0.000000 1.000000 0.000000
      length 0.000000
      axis 0.0 0.0 0.0 xyz
      dof rx ry rz
   end
   begin
      id 5
      name Spine_dum1
      direction 0.000000 1.000000 0.000000
      length 16.494159
      axis 0.0 0.0 0.0 xyz
   end
   begin
      id 6
      name Spine_dum2
      direction 0.000000 1.000000 0.000000
      length 10.663448
      axis 0.0 0.0 0.0 xyz
   end
   begin
      id 7
      name Spine_dum3
      direction 0.000000 1.000000 0.000000
      length 10.663448
      axis 0.0 0.0 0.0 xyz
   end
   begin
      id 8
      name Head
      direction 0.000000 1.000000 0.000000
      length 4.527550
      axis 0.0 0.0 0.0 xyz
      dof rx ry rz
   end
   begin
      id 9
      name LeftShoulder
      direction 1.000000 0.000000 0.000000
      length 7.531907
      axis 0.0 0.0 -90.0 xyz
      dof rx ry rz
   end
   begin
      id 10
      name LeftArm
      direction 1.000000 0.000000 0.000000
      length 10.229199
      axis 0.0 0.0 -90.0 xyz
      dof rx ry rz
   end
   begin
      id 11
      name LeftForeArm
      direction 1.000000 0.000000 0.000000
      length 8.673495
      axis 0.0 0.0 -90.0 xyz
      dof ry rz rx
   end
   begin
      id 12
      name LeftHand
      direction 0.000000 0.000000 0.000000
      length 0.000000
      axis 0.0 0.0 -90.0 xyz
      dof rx ry rz
   end
   begin
      id 13
      name LeftHand_dum1
      direction 0.000000 0.000000 0.000000
      length 0.000000
      axis 0.0 0.0 -90.0 xyz
   end
   begin
      id 14
      name LeftHand_dum2
      direction 1.000000 0.000000 0.000000
      length 3.937000
      axis 0.0 0.0 -90.0 xyz
   end
   begin
      id 15
      name LeftHandThumb1
      direction 0.000000 0.000000 1.000000
      length 3.937000
      axis 0.0 0.0 -90.0 xyz
      dof rx rz ry
   end
   begin
      id 16
      name RightShoulder
      direction -1.000000 0.000000 0.000000
      length 7.531907
      axis 0.0 0.0 90.0 xyz
      dof rx ry rz
   end
   begin
      id 17
      name RightArm
      direction -1.000000 0.000000 0.000000
      length 10.229199
      axis 0.0 0.0 90.0 xyz
      dof rx ry rz
   end
   begin
      id 18
      name RightForeArm
      direction -1.000000 0.000000 0.000000
      length 8.673495
      axis 0.0 0.0 90.0 xyz
      dof ry rz rx
   end
   begin
      id 19
      name RightHand
      direction 0.000000 0.000000 0.000000
      length 0.000000
      axis 0.0 0.0 90.0 xyz
      dof rx ry rz
   end
   begin
      id 20
      name RightHand_dum1
      direction 0.000000 0.000000 0.000000
      length 0.000000
      axis 0.0 0.0 90.0 xyz
   end
   begin
      id 21
      name RightHand_dum2
      direction -1.000000 0.000000 0.000000
      length 3.937000
      axis 0.0 0.0 90.0 xyz
   end
   begin
      id 22
      name RightHandThumb1
      direction 0.000000 0.000000 1.000000
      length 3.937000
      axis 0.0 0.0 90.0 xyz
      dof rx rz ry
   end
   begin
      id 23
      name LeftUpLeg
      direction 0.000000 -1.000000 0.000000
      length 16.263388
      axis 0.0 0.0 0.0 xyz
      dof rx ry rz
   end
   begin
      id 24
      name LeftLeg
      direction 0.000000 -1.000000 0.000000
      length 14.328163
      axis 0.0 0.0 0.0 xyz
      dof rx ry rz
   end
   begin
      id 25
      name LeftFoot
      direction 0.000000 -0.258819 0.965926
      length 5.031290
      axis 15.0 0.0 0.0 xyz
      dof rx ry rz
   end
   begin
      id 26
      name LeftToeBase
      direction 0.000000 0.000000 1.000000
      length 2.952750
      axis 0.0 0.0 0.0 xyz
      dof rx ry rz
   end
   begin
      id 27
      name RightUpLeg
      direction 0.000000 -1.000000 0.000000
      length 16.263388
      axis 0.0 0.0 0.0 xyz
      dof rx ry rz
   end
   begin
      id 28
      name RightLeg
      direction 0.000000 -1.000000 0.000000
      length 14.328163
      axis 0.0 0.0 0.0 xyz
      dof rx ry rz
   end
   begin
      id 29
      name RightFoot
      direction 0.000000 -0.258819 0.965926
      length 5.031290
      axis 15.0 0.0 0.0 xyz
      dof rx ry rz
   end
   begin
      id 30
      name RightToeBase
      direction 0.000000 0.000000 1.000000
      length 2.952750
      axis 0.0 0.0 0.0 xyz
      dof rx ry rz
   end
:hierarchy
   begin
      root Spine_dum LeftUpLeg_dum RightUpLeg_dum
      Spine_dum Spine
      LeftUpLeg_dum LeftUpLeg
      RightUpLeg_dum RightUpLeg
      Spine Spine_dum1 Spine_dum2 Spine_dum3
      Spine_dum1 Head
      Spine_dum2 LeftShoulder
      Spine_dum3 RightShoulder
      LeftShoulder LeftArm
      LeftArm LeftForeArm
      LeftForeArm LeftHand
      LeftHand LeftHand_dum1 LeftHand_dum2
      LeftHand_dum1 LeftHandThumb1
      RightShoulder RightArm
      RightArm RightForeArm
      RightForeArm RightHand
      RightHand RightHand_dum1 RightHand_dum2
      RightHand_dum1 RightHandThumb1
      LeftUpLeg LeftLeg
      LeftLeg LeftFoot
      LeftFoot LeftToeBase
      RightUpLeg RightLeg
      RightLeg RightFoot
      RightFoot RightToeBase
   end

# File created by Blade
# Date/Time:  Wed Apr 08 14:10:35 2015
# Frame Rate: 120.000 fps
#------------------------------------------------------
:FULLY-SPECIFIED
:DEGREES
1
root -0.226351 32.815646 -16.971145 5.143876 2.065024 -0.703877
Spine -7.857668 -7.332330 0.135175
Head 13.736741 -3.664867 -2.592666
LeftShoulder -21.032565 41.557889 18.780936
LeftArm 61.193244 -54.448327 -65.380007
LeftForeArm 7.815974 -0.000000 -4.365447
LeftHand 6.101619 -0.000000 6.554287
LeftHandThumb1 -26.253704 0.000000 33.147579
RightShoulder -5.270681 3.366718 -30.093612
RightArm 12.553058 14.560429 43.249906
RightForeArm -12.975965 -0.000000 1.089746
RightHand 3.329906 0.000000 1.388183
RightHandThumb1 -24.326973 -0.000000 -32.862282
LeftUpLeg -3.948090 -7.281570 3.420242
LeftLeg 4.557441 -0.000000 -0.000000
LeftFoot -8.178111 9.425066 -17.390125
LeftToeBase -9.036162 -0.000000 0.000000
RightUpLeg 1.511527 3.049544 3.701739
RightLeg -6.753313 -0.000000 0.000000
RightFoot -4.133212 -15.210889 7.072203
RightToeBase -3.500606 -0.000000 0.000000
2
root -0.246844 32.814927 -16.974766 5.150934 2.058334 -0.705244
Spine -7.851268 -7.307150 0.108253
Head 13.740563 -3.643672 -2.587890
LeftShoulder -21.069006 41.587157 18.770971
LeftArm 61.227837 -54.485144 -65.387908
LeftForeArm 7.872913 -0.000000 -4.356129
LeftHand 6.046868 -0.000000 6.471984
LeftHandThumb1 -26.253704 0.000000 33.147579
RightShoulder -5.256508 3.371000 -30.078790
RightArm 12.531632 14.599440 43.220885
RightForeArm -12.975053 -0.000000 1.109558
RightHand 3.389678 -0.000000 1.368014
RightHandThumb1 -24.326973 -0.000000 -32.862282
LeftUpLeg -4.432507 -6.418623 3.395673
LeftLeg 5.540703 -0.000000 -0.000000
LeftFoot -8.299200 8.745067 -16.913829
LeftToeBase -9.236644 -0.000000 0.000000
RightUpLeg 1.519724 3.055769 3.734255
RightLeg -6.801335 -0.000000 0.000000
RightFoot -4.100945 -15.199634 7.064817
RightToeBase -3.469634 -0.000000 0.000000
3
root -0.265082 32.814052 -16.979309 5.169054 2.044920 -0.696616
Spine -7.860453 -7.258718 0.079825
Head 13.757254 -3.637091 -2.604001
LeftShoulder -21.039273 41.559853 18.798193
LeftArm 61.084796 -54.492351 -65.229143
LeftForeArm 7.889937 0.000000 -4.345064
LeftHand 6.030269 -0.000000 6.470583
LeftHandThumb1 -26.253704 0.000000 33.147579
RightShoulder -5.259240 3.355728 -30.075580
RightArm 12.534472 14.582253 43.190323
RightForeArm -12.898112 -0.000000 1.133801
RightHand 3.312677 0.000000 1.262087
RightHandThumb1 -24.326973 -0.000000 -32.862282
LeftUpLeg -4.683354 -6.302645 3.404913
LeftLeg 6.010467 -0.000000 -0.000000
LeftFoot -8.444115 8.674266 -16.835756
LeftToeBase -9.303192 -0.000000 0.000000
RightUpLeg 1.531893 3.127873 3.742902
RightLeg -6.880300 -0.000000 0.000000
RightFoot -4.063263 -15.213458 7.128100
RightToeBase -3.557097 -0.000000 0.000000
4
root -0.280799 32.812846 -16.984005 5.188307 2.020500 -0.682628
Spine -7.865342 -7.193003 0.056507
Head 13.752817 -3.639260 -2.632193
LeftShoulder -21.010343 41.513997 18.816768
LeftArm 60.941724 -54.495588 -65.066049
LeftForeArm 7.904598 -0.000000 -4.328586
LeftHand 5.934440 0.000000 6.495482
LeftHandThumb1 -26.253704 0.000000 33.147579
RightShoulder -5.271783 3.348094 -30.091076
RightArm 12.528183 14.611931 43.174635
RightForeArm -12.919286 -0.000000 1.167554
RightHand 3.286636 0.000000 1.261887
RightHandThumb1 -24.326973 -0.000000 -32.862282
LeftUpLeg -4.819301 -6.509317 3.428280
LeftLeg 6.240261 -0.000000 -0.000000
LeftFoot -8.587282 8.837301 -16.997772
LeftToeBase -9.342875 -0.000000 0.000000
RightUpLeg 1.536624 3.179946 3.738781
RightLeg -6.944305 -0.000000 0.000000
RightFoot -4.047000 -15.179641 7.215292
RightToeBase -3.440291 -0.000000 0.000000
5
root -0.294438 32.812955 -16.987519 5.208076 2.006670 -0.625148
Spine -7.874741 -7.150221 -0.017141
Head 13.759412 -3.642057 -2.639432
LeftShoulder -20.998743 41.510063 18.820375
LeftArm 60.869151 -54.514376 -64.954057
LeftForeArm 7.912719 -0.000000 -4.348541
LeftHand 5.947719 -0.000000 6.617969
LeftHandThumb1 -26.253704 0.000000 33.147579
RightShoulder -5.278379 3.343141 -30.088966
RightArm 12.520318 14.577318 43.139954
RightForeArm -12.895193 -0.000000 1.217051
RightHand 3.181072 -0.000000 1.213681
RightHandThumb1 -24.326973 -0.000000 -32.862282
LeftUpLeg -4.937784 -6.753002 3.404743
LeftLeg 6.436258 -0.000000 -0.000000
LeftFoot -8.688629 9.036254 -17.125631
LeftToeBase -9.375980 -0.000000 0.000000
RightUpLeg 1.543089 3.185971 3.687131
RightLeg -7.004128 -0.000000 0.000000
RightFoot -4.039065 -15.101923 7.320748
RightToeBase -3.451773 -0.000000 0.000000
6
root -0.310379 32.812813 -16.990738 5.218415 1.988055 -0.600363
Spine -7.872660 -7.123910 -0.058137
Head 13.764454 -3.606438 -2.643249
LeftShoulder -21.041104 41.515994 18.800195
LeftArm 60.845382 -54.530419 -64.905071
LeftForeArm 7.916642 -0.000000 -4.320595
LeftHand 5.893577 0.000000 6.566367
LeftHandThumb1 -26.253704 0.000000 33.147579
RightShoulder -5.263091 3.396942 -30.085068
RightArm 12.486324 14.548828 43.091422
RightForeArm -12.941474 -0.000000 1.235787
RightHand 3.226321 0.000000 1.215242
RightHandThumb1 -24.326973 -0.000000 -32.862282
LeftUpLeg -5.085686 -6.820758 3.399587
LeftLeg 6.717335 -0.000000 -0.000000
LeftFoot -8.802735 9.150004 -17.123152
LeftToeBase -9.381666 -0.000000 0.000000
RightUpLeg 1.561683 3.204437 3.673328
RightLeg -7.070963 -0.000000 0.000000
RightFoot -4.031409 -15.037407 7.420420
RightToeBase -3.423531 -0.000000 0.000000
7
root -0.326446 32.813135 -16.993798 5.220057 1.979909 -0.576544
Spine -7.861416 -7.088243 -0.095325
Head 13.765956 -3.595933 -2.657003
LeftShoulder -21.035406 41.504853 18.815065
LeftArm 60.824567 -54.557462 -64.888169
LeftForeArm 7.950066 -0.000000 -4.311665
LeftHand 5.887725 -0.000000 6.616706
LeftHandThumb1 -26.253704 0.000000 33.147579
RightShoulder -5.258838 3.409539 -30.087537
RightArm 12.465610 14.518384 43.044747
RightForeArm -12.969113 -0.000000 1.253894
RightHand 3.223401 -0.000000 1.280827
RightHandThumb1 -24.326973 -0.000000 -32.862282
LeftUpLeg -5.236474 -6.936172 3.407138
LeftLeg 7.017877 -0.000000 -0.000000
LeftFoot -8.925503 9.229519 -17.204369
LeftToeBase -9.403183 -0.000000 0.000000
RightUpLeg 1.566728 3.083112 3.667968
RightLeg -7.081855 -0.000000 0.000000
RightFoot -4.028427 -14.834241 7.519831
RightToeBase -3.510591 -0.000000 0.000000
8
root -0.341476 32.812777 -16.997155 5.222623 1.960548 -0.545288
Spine -7.847237 -7.043195 -0.136334
Head 13.755122 -3.585145 -2.683595
LeftShoulder -21.023136 41.488744 18.829194
LeftArm 60.744949 -54.564989 -64.804923
LeftForeArm 7.946128 -0.000000 -4.294093
LeftHand 5.825827 -0.000000 6.629231
LeftHandThumb1 -26.253704 0.000000 33.147579
RightShoulder -5.261496 3.401453 -30.104148
RightArm 12.464871 14.537525 43.025913
RightForeArm -12.949590 -0.000000 1.304815
RightHand 3.172758 -0.000000 1.378611
RightHandThumb1 -24.326973 -0.000000 -32.862282
LeftUpLeg -5.372885 -7.037016 3.412512
LeftLeg 7.292891 -0.000000 -0.000000
LeftFoot -9.048343 9.250426 -17.280114
LeftToeBase -9.357047 -0.000000 0.000000
RightUpLeg 1.572168 3.010011 3.652317
RightLeg -7.103845 -0.000000 0.000000
RightFoot -4.032340 -14.685794 7.576202
RightToeBase -3.504600 -0.000000 0.000000
9
root -0.358550 32.813047 -17.000831 5.224916 1.940816 -0.519275
Spine -7.831539 -7.002553 -0.176695
Head 13.746077 -3.550232 -2.692152
LeftShoulder -21.017054 41.479804 18.845288
LeftArm 60.674016 -54.580473 -64.748751
LeftForeArm 7.944398 -0.000000 -4.263069
LeftHand 5.794017 -0.000000 6.710890
LeftHandThumb1 -26.253704 0.000000 33.147579
RightShoulder -5.244994 3.403633 -30.102877
RightArm 12.443880 14.540153 42.984980
RightForeArm -12.903965 -0.000000 1.344153
RightHand 3.242491 -0.000000 1.332762
RightHandThumb1 -24.326973 -0.000000 -32.862282
LeftUpLeg -5.497965 -7.158791 3.423030
LeftLeg 7.541182 -0.000000 -0.000000
LeftFoot -9.148799 9.323834 -17.380471
LeftToeBase -9.411808 -0.000000 0.000000
RightUpLeg 1.595795 3.016402 3.640587
RightLeg -7.163374 -0.000000 0.000000
RightFoot -4.014103 -14.616003 7.617195
RightToeBase -3.451203 -0.000000 0.000000
10
root -0.374777 32.813321 -17.004318 5.230074 1.912035 -0.490978
Spine -7.817534 -6.950867 -0.213729
Head 13.729334 -3.519057 -2.725894
LeftShoulder -20.982959 41.422652 18.875243
LeftArm 60.560987 -54.603333 -64.655633
LeftForeArm 7.961946 -0.000000 -4.270700
LeftHand 5.859854 -0.000000 6.713064
LeftHandThumb1 -26.253704 0.000000 33.147579
RightShoulder -5.272402 3.305750 -30.097957
RightArm 12.566718 14.566907 42.966365
RightForeArm -12.900896 -0.000000 1.331614
RightHand 3.193433 -0.000000 1.357735
RightHandThumb1 -24.326973 -0.000000 -32.862282
LeftUpLeg -5.636083 -7.234286 3.425866
LeftLeg 7.810328 -0.000000 -0.000000
LeftFoot -9.266615 9.410085 -17.480106
LeftToeBase -9.421947 -0.000000 0.000000
RightUpLeg 1.618382 3.055341 3.624707
RightLeg -7.230534 -0.000000 0.000000
RightFoot -3.988056 -14.572237 7.719512
RightToeBase -3.478135 -0.000000 0.000000
11
root -0.388877 32.813257 -17.007646 5.233261 1.898826 -0.456456
Spine -7.803541 -6.921166 -0.248846
Head 13.720372 -3.498021 -2.755083
LeftShoulder -20.995906 41.420082 18.865905
LeftArm 60.498446 -54.591517 -64.578391
LeftForeArm 7.949503 -0.000000 -4.256383
LeftHand 5.791612 -0.000000 6.820883
LeftHandThumb1 -26.253704 0.000000 33.147579
RightShoulder -5.226628 3.384262 -30.147294
RightArm 12.445026 14.586912 42.962295
RightForeArm -12.954373 -0.000000 1.416405
RightHand 2.992457 -0.000000 1.330015
RightHandThumb1 -24.326973 -0.000000 -32.862282
LeftUpLeg -5.766108 -7.307817 3.421810
LeftLeg 8.061356 -0.000000 -0.000000
LeftFoot -9.376959 9.512749 -17.588578
LeftToeBase -9.701296 -0.000000 0.000000
RightUpLeg 1.630383 3.039757 3.600688
RightLeg -7.265792 -0.000000 0.000000
RightFoot -3.973628 -14.472306 7.767515
RightToeBase -3.500119 -0.000000 0.000000
12
root -0.403783 32.813272 -17.011229 5.228049 1.869309 -0.444123
Spine -7.776400 -6.873329 -0.259964
Head 13.703734 -3.468204 -2.794204
LeftShoulder -21.010990 41.433901 18.844758
LeftArm 60.551341 -54.642278 -64.635598
LeftForeArm 7.879512 0.000000 -4.241232
LeftHand 5.852567 -0.000000 6.664764
LeftHandThumb1 -26.253704 0.000000 33.147579
RightShoulder -5.216636 3.397161 -30.179483
RightArm 12.436036 14.539797 42.940809
RightForeArm -12.895819 -0.000000 1.435176
RightHand 3.044015 0.000000 1.380942
RightHandThumb1 -24.326973 -0.000000 -32.862282
LeftUpLeg -5.886900 -7.336979 3.443019
LeftLeg 8.326081 -0.000000 -0.000000
LeftFoot -9.472012 9.422276 -17.682828
LeftToeBase -9.568261 -0.000000 0.000000
RightUpLeg 1.650213 3.062180 3.600225
RightLeg -7.306059 -0.000000 0.000000
RightFoot -3.951402 -14.403305 7.854027
RightToeBase -3.520339 -0.000000 0.000000
13
root -0.419807 32.812886 -17.015532 5.228941 1.846855 -0.435710
Spine -7.755931 -6.846278 -0.267299
Head 13.689111 -3.423958 -2.817390
LeftShoulder -21.020797 41.410043 18.851713
LeftArm 60.481369 -54.635566 -64.565025
LeftForeArm 7.865004 -0.000000 -4.272448
LeftHand 5.918378 -0.000000 6.604380
LeftHandThumb1 -26.253704 0.000000 33.147579
RightShoulder -5.186190 3.424305 -30.200880
RightArm 12.410829 14.530793 42.907896
RightForeArm -12.858944 -0.000000 1.469658
RightHand 3.001894 -0.000000 1.384306
RightHandThumb1 -24.326973 -0.000000 -32.862282
LeftUpLeg -5.999612 -7.422066 3.470251
LeftLeg 8.548469 -0.000000 -0.000000
LeftFoot -9.600332 9.532338 -17.817148
LeftToeBase -9.805779 -0.000000 0.000000
RightUpLeg 1.660361 3.077785 3.604961
RightLeg -7.342214 -0.000000 0.000000
RightFoot -3.944373 -14.343927 7.931720
RightToeBase -3.582361 -0.000000 0.000000
